HIERARCHY
ROOT Hips
{
	OFFSET -0.001795 -0.223333 0.028219
	CHANNELS 6 Xposition Yposition Zposition Zrotation Yrotation Xrotation 
	JOINT LeftUpLeg
	{
		OFFSET 0.069520 -0.091406 -0.006815
		CHANNELS 3 Zrotation Yrotation Xrotation
		JOINT LeftLeg
		{
			OFFSET 0.034277 -0.375199 -0.004496
			CHANNELS 3 Zrotation Yrotation Xrotation
			JOINT LeftFoot
			{
				OFFSET -0.013596 -0.397961 -0.043693
				CHANNELS 3 Zrotation Yrotation Xrotation
				JOINT LeftToe
				{
					OFFSET 0.026358 -0.055791 0.119288
					CHANNELS 3 Zrotation Yrotation Xrotation
					End Site
					{
						OFFSET 0.000000 0.000000 0.000000
					}
				}
			}
		}
	}
	JOINT RightUpLeg
	{
		OFFSET -0.067670 -0.090522 -0.004320
		CHANNELS 3 Zrotation Yrotation Xrotation
		JOINT RightLeg
		{
			OFFSET -0.038290 -0.382569 -0.008850
			CHANNELS 3 Zrotation Yrotation Xrotation
			JOINT RightFoot
			{
				OFFSET 0.015774 -0.398415 -0.042312
				CHANNELS 3 Zrotation Yrotation Xrotation
				JOINT RightToe
				{
					OFFSET -0.025372 -0.048144 0.123348
					CHANNELS 3 Zrotation Yrotation Xrotation
					End Site
					{
						OFFSET 0.000000 0.000000 0.000000
					}
				}
			}
		}
	}
	JOINT Spine
	{
		OFFSET -0.002533 0.108963 -0.026696
		CHANNELS 3 Zrotation Yrotation Xrotation
		JOINT Spine1
		{
			OFFSET 0.005487 0.135180 0.001092
			CHANNELS 3 Zrotation Yrotation Xrotation
			JOINT Spine2
			{
				OFFSET 0.001457 0.052922 0.025425
				CHANNELS 3 Zrotation Yrotation Xrotation
				JOINT Neck
				{
					OFFSET -0.002778 0.213870 -0.042857
					CHANNELS 3 Zrotation Yrotation Xrotation
					JOINT Head
					{
						OFFSET 0.005152 0.064970 0.051349
						CHANNELS 3 Zrotation Yrotation Xrotation
						End Site
						{
							OFFSET 0.000000 0.000000 0.000000
						}
					}
				}
				JOINT LeftShoulder
				{
					OFFSET 0.078845 0.121749 -0.034090
					CHANNELS 3 Zrotation Yrotation Xrotation
					JOINT LeftArm
					{
						OFFSET 0.090977 0.030469 -0.008868
						CHANNELS 3 Zrotation Yrotation Xrotation
						JOINT LeftForeArm
						{
							OFFSET 0.259612 -0.012772 -0.027456
							CHANNELS 3 Zrotation Yrotation Xrotation
							JOINT LeftHand
							{
								OFFSET 0.249234 0.008986 -0.001171
								CHANNELS 3 Zrotation Yrotation Xrotation
								End Site
								{
									OFFSET 0.000000 0.000000 0.000000
								}
							}
						}
					}
				}
				JOINT RightShoulder
				{
					OFFSET -0.081759 0.118833 -0.038615
					CHANNELS 3 Zrotation Yrotation Xrotation
					JOINT RightArm
					{
						OFFSET -0.096012 0.032551 -0.009143
						CHANNELS 3 Zrotation Yrotation Xrotation
						JOINT RightForeArm
						{
							OFFSET -0.253742 -0.013329 -0.021401
							CHANNELS 3 Zrotation Yrotation Xrotation
							JOINT RightHand
							{
								OFFSET -0.255298 0.007772 -0.005559
								CHANNELS 3 Zrotation Yrotation Xrotation
								End Site
								{
									OFFSET 0.000000 0.000000 0.000000
								}
							}
						}
					}
				}
			}
		}
	}
}
MOTION
Frames: 16
Frame Time: 0.050000
-0.042226 0.947315 0.034087 -0.810979 -4.011343 1.361457 -0.091114 0.271516 2.822550 0.229546 0.121806 -4.108739 -0.590665 0.589756 4.495229 0.000000 0.000000 0.000000 3.378816 -0.306149 1.549020 -2.276324 0.143498 -1.347223 3.696139 5.448775 5.455567 0.000000 0.000000 0.000000 5.344382 0.180941 -2.699973 -2.062324 0.983867 -0.658422 -4.443316 7.039400 5.145275 9.144057 -3.240289 -19.242718 0.000000 0.000000 0.000000 -25.760581 -4.373876 -2.000068 -46.632447 -4.540318 -3.235987 -6.777769 -21.014015 1.816436 0.000000 0.000000 0.000000 22.895583 -4.587413 -3.136772 54.711028 0.531739 -5.432024 6.544108 27.145968 2.773994 0.000000 0.000000 0.000000 
-0.042673 0.947385 0.033397 -0.728469 -4.274839 1.630277 -0.113409 0.259757 2.688675 0.240076 0.125318 -4.225748 -0.578506 0.604315 4.513570 0.000000 0.000000 0.000000 3.247353 -0.290078 1.440048 -2.299964 0.128325 -1.614019 3.677181 5.606771 5.124134 0.000000 0.000000 0.000000 5.352720 0.208919 -3.050971 -2.267334 1.082204 -0.444067 -4.456134 6.764260 4.935887 9.133841 -3.366613 -18.726498 0.000000 0.000000 0.000000 -26.045980 -4.320776 -1.933631 -46.533869 -4.658831 -3.198617 -7.156754 -20.835906 1.884903 0.000000 0.000000 0.000000 22.763664 -4.347890 -3.104866 54.700835 0.299504 -5.490463 6.612549 26.934695 2.734671 0.000000 0.000000 0.000000 
-0.042957 0.947750 0.032697 -0.707045 -4.814426 1.763250 -0.136998 0.259266 2.664101 0.290804 0.132812 -4.528719 -0.630866 0.597266 4.850593 0.000000 0.000000 0.000000 3.231204 -0.319190 1.657824 -2.324850 0.092672 -2.212392 3.647386 5.367642 5.303957 0.000000 0.000000 0.000000 5.458176 0.217625 -3.131622 -2.449767 1.170078 -0.322432 -4.492517 6.719455 4.637521 8.977009 -3.293306 -18.750802 0.000000 0.000000 0.000000 -26.298422 -4.394665 -1.826122 -46.703780 -4.810319 -3.153190 -7.278115 -20.547680 1.890069 0.000000 0.000000 0.000000 22.571087 -4.431096 -3.235189 54.581806 -0.045481 -5.581810 7.085219 26.769465 2.797188 0.000000 0.000000 0.000000 
-0.043166 0.948266 0.031851 -0.726140 -5.286816 1.992775 -0.117507 0.254488 2.612956 0.336530 0.148496 -5.012490 -0.672600 0.621094 5.214874 0.000000 0.000000 0.000000 3.245149 -0.316998 1.605273 -2.381029 0.074575 -2.556917 3.546423 5.090324 5.309573 0.000000 0.000000 0.000000 5.548770 0.228079 -3.253651 -2.409432 1.149292 -0.369580 -4.703727 6.587043 4.484154 8.976472 -3.403002 -18.321974 0.000000 0.000000 0.000000 -26.739854 -4.450514 -1.730619 -46.372752 -4.966524 -3.081207 -7.431254 -20.218349 1.900297 0.000000 0.000000 0.000000 22.640577 -4.215434 -3.213742 54.324351 -0.424088 -5.698905 7.375480 26.940961 2.858157 0.000000 0.000000 0.000000 
-0.043305 0.948751 0.030830 -0.779996 -5.924215 2.166328 -0.244844 0.265648 2.672580 0.505470 0.159764 -5.580930 -0.785532 0.495571 5.586275 0.000000 0.000000 0.000000 3.293446 -0.298873 1.408503 -2.466079 0.072070 -2.659575 3.669278 5.204784 5.468740 0.000000 0.000000 0.000000 5.676378 0.245110 -3.412537 -2.344951 1.122555 -0.118428 -4.894211 6.480480 4.122707 8.975553 -3.436796 -18.288943 0.000000 0.000000 0.000000 -26.991338 -4.626775 -1.529739 -46.243652 -5.029394 -3.049397 -7.297231 -19.871231 1.855984 0.000000 0.000000 0.000000 22.285801 -3.983687 -3.165109 54.271319 -0.490599 -5.659259 7.764475 26.896332 2.909117 0.000000 0.000000 0.000000 
-0.043490 0.949403 0.029637 -0.751838 -6.444027 2.423667 -0.112546 0.240976 2.459078 0.445034 0.176765 -5.879793 -0.990676 0.166190 5.867888 0.000000 0.000000 0.000000 3.505330 -0.270850 1.065685 -2.605579 0.080883 -2.641852 3.575722 5.052591 5.312542 0.000000 0.000000 0.000000 5.793553 0.269591 -3.663854 -2.366027 1.140288 0.249683 -5.129476 6.412480 3.706289 8.822200 -3.473247 -17.651376 0.000000 0.000000 0.000000 -27.371957 -4.618264 -1.504306 -45.913219 -5.009277 -3.012082 -7.138420 -19.946848 1.841434 0.000000 0.000000 0.000000 22.112313 -3.852246 -3.157997 54.060200 -0.682461 -5.663949 8.463285 27.320378 3.100170 0.000000 0.000000 0.000000 
-0.043721 0.949887 0.028238 -0.794429 -6.737636 2.402512 -0.061242 0.244779 2.506598 0.593452 0.181278 -6.209177 -1.174988 -0.107181 6.143520 0.000000 0.000000 0.000000 3.560915 -0.244229 0.825067 -2.505132 0.083433 -2.456883 3.606430 5.036552 5.399875 0.000000 0.000000 0.000000 5.838924 0.253535 -3.470147 -2.190440 1.056835 0.281131 -5.364478 6.518974 3.561617 8.937462 -3.529612 -17.691823 0.000000 0.000000 0.000000 -27.662065 -4.891928 -1.380216 -45.534579 -4.894356 -3.004924 -7.088279 -19.979380 1.835419 0.000000 0.000000 0.000000 21.953025 -3.868256 -3.154062 53.813858 -0.394865 -5.500316 8.434514 27.528931 3.119820 0.000000 0.000000 0.000000 
-0.044009 0.950384 0.026747 -0.892954 -6.719070 2.261359 0.226296 0.252750 2.671515 0.254238 0.205870 -6.264499 -1.280687 -0.299394 6.160317 0.000000 0.000000 0.000000 3.803263 -0.240566 0.727120 -2.700365 0.111767 -2.234074 3.632338 5.133715 5.347028 0.000000 0.000000 0.000000 5.971953 0.248638 -3.361153 -2.193623 1.061994 0.452484 -5.680421 6.399171 3.663675 9.107533 -3.561779 -18.112993 0.000000 0.000000 0.000000 -27.416433 -5.297462 -1.077233 -45.449543 -5.126027 -2.933942 -6.883977 -20.168126 1.819988 0.000000 0.000000 0.000000 21.948368 -3.680409 -3.050997 53.615902 0.034298 -5.309775 8.525066 27.998275 3.202982 0.000000 0.000000 0.000000 
-0.044318 0.950467 0.025243 -0.871958 -6.593991 2.072041 0.462165 0.254047 2.757348 0.021859 0.226273 -6.393733 -1.412599 -0.458164 6.376864 0.000000 0.000000 0.000000 3.885679 -0.246104 0.764330 -2.828992 0.122520 -2.231812 3.864551 5.420245 5.708372 0.000000 0.000000 0.000000 5.985601 0.227810 -3.117860 -2.160599 1.051627 0.747475 -5.949616 6.245887 3.434067 8.891831 -3.412081 -18.206149 0.000000 0.000000 0.000000 -27.362736 -5.593702 -0.894840 -45.020395 -5.325813 -2.814070 -6.553086 -20.371444 1.779337 0.000000 0.000000 0.000000 21.863779 -3.445435 -2.915699 53.670590 0.153274 -5.241138 8.686890 28.775280 3.342039 0.000000 0.000000 0.000000 
-0.044521 0.950833 0.023814 -0.905498 -6.479945 1.794795 0.761297 0.269133 3.010043 -0.344596 0.262536 -6.732448 -1.504223 -0.471699 6.772984 0.000000 0.000000 0.000000 4.196497 -0.291340 1.043159 -2.938573 0.115689 -2.487033 3.984760 5.382689 6.163365 0.000000 0.000000 0.000000 5.905433 0.206509 -2.864323 -2.016958 0.981417 0.765814 -5.992816 6.115899 3.564944 9.037823 -3.480401 -18.377705 0.000000 0.000000 0.000000 -27.720601 -5.957041 -0.671836 -44.740073 -5.787305 -2.644905 -5.854918 -19.924602 1.626210 0.000000 0.000000 0.000000 22.041205 -3.462212 -2.959170 53.509922 0.743857 -4.987146 8.145387 28.925233 3.225886 0.000000 0.000000 0.000000 
-0.044540 0.950877 0.022581 -0.921238 -6.346422 1.486418 0.998561 0.277399 3.175504 -0.918415 0.297707 -6.717446 -1.674241 -0.687638 7.006991 0.000000 0.000000 0.000000 4.416245 -0.334042 1.330510 -2.900071 0.116136 -2.452369 3.853859 5.075406 6.199844 0.000000 0.000000 0.000000 5.784295 0.190217 -2.658115 -2.057097 0.999002 0.656138 -5.859201 5.941308 3.856051 9.075861 -3.518842 -18.432999 0.000000 0.000000 0.000000 -28.152017 -6.529841 -0.279127 -44.399012 -6.265380 -2.488502 -5.478157 -19.611239 1.546435 0.000000 0.000000 0.000000 22.111741 -3.101159 -2.789565 53.704899 1.032729 -4.903285 7.765246 29.030532 3.139083 0.000000 0.000000 0.000000 
-0.044478 0.951332 0.021622 -0.686700 -6.044031 0.899220 0.822311 0.304722 3.402957 -0.995640 0.300010 -6.652011 -1.885650 -0.919855 7.353727 0.000000 0.000000 0.000000 4.691506 -0.440677 2.103429 -3.265669 0.137876 -2.579164 3.926616 5.350957 6.074412 0.000000 0.000000 0.000000 5.337939 0.143207 -2.120663 -1.808521 0.877180 0.634347 -5.725678 6.153829 3.731015 9.315628 -3.597802 -18.570124 0.000000 0.000000 0.000000 -28.447680 -6.797855 -0.288407 -44.761404 -6.548459 -2.350646 -4.705838 -19.105172 1.367571 0.000000 0.000000 0.000000 22.414518 -2.667164 -2.463447 53.986334 1.213054 -4.873403 7.103348 28.737477 2.961980 0.000000 0.000000 0.000000 
-0.044383 0.951729 0.020884 -0.471692 -5.162724 0.688907 0.791596 0.318510 3.580614 -1.362652 0.322752 -6.759705 -1.647017 -0.387154 7.382629 0.000000 0.000000 0.000000 4.746409 -0.485231 2.456209 -3.539238 0.157189 -2.674765 3.669065 4.781422 6.187670 0.000000 0.000000 0.000000 4.675537 0.118399 -1.912539 -1.478086 0.713139 0.475850 -5.676583 5.943200 3.733621 9.495062 -3.579251 -19.097249 0.000000 0.000000 0.000000 -28.912881 -6.898497 -0.370288 -44.485525 -6.798223 -2.202883 -4.676324 -18.227904 1.295692 0.000000 0.000000 0.000000 22.832817 -2.517775 -2.333247 54.128331 1.235658 -4.904315 6.834287 28.336393 2.866530 0.000000 0.000000 0.000000 
-0.044365 0.952172 0.020241 -0.481287 -5.618567 0.714644 0.854080 0.287448 3.241364 -0.830364 0.274564 -6.216610 -1.396377 0.122435 7.622070 0.000000 0.000000 0.000000 5.041227 -0.452073 2.093880 -4.039986 0.224554 -2.240523 3.984789 5.469637 6.150783 0.000000 0.000000 0.000000 4.551644 0.106245 -1.775262 -1.914997 0.927865 0.590767 -5.164711 5.461608 3.461619 8.777582 -3.230103 -19.156771 0.000000 0.000000 0.000000 -28.820145 -6.773605 -0.116048 -45.000510 -6.862333 -2.292651 -3.739222 -17.204900 1.104817 0.000000 0.000000 0.000000 22.149956 -1.438132 -1.896495 55.532198 1.051817 -5.010294 6.657112 28.012571 2.726183 0.000000 0.000000 0.000000 
-0.044307 0.952960 0.019605 -0.348131 -6.004549 0.722711 0.842046 0.281282 3.149765 -0.567394 0.252891 -6.064696 -1.298721 0.066597 7.070203 0.000000 0.000000 0.000000 5.082233 -0.446925 2.031440 -4.323746 0.243248 -2.261266 4.333724 5.974692 6.494587 0.000000 0.000000 0.000000 4.153894 0.087068 -1.577764 -1.867469 0.907419 0.723143 -5.030314 5.426668 3.196083 8.772678 -3.222044 -19.287691 0.000000 0.000000 0.000000 -29.126249 -6.607670 -0.161388 -45.018032 -7.066333 -2.224416 -3.408322 -15.874065 0.979983 0.000000 0.000000 0.000000 22.608589 -1.128918 -1.825305 56.426308 1.454817 -4.874929 5.682377 27.120741 2.389245 0.000000 0.000000 0.000000 
-0.043814 0.954346 0.018617 -0.266492 -7.441653 0.693362 1.026955 0.188776 2.121045 -0.176684 0.182559 -4.857911 -0.788062 0.917551 7.145870 0.000000 0.000000 0.000000 4.691287 -0.374706 1.594893 -3.976555 0.234837 -1.878950 5.149743 7.288319 6.987687 0.000000 0.000000 0.000000 3.788114 0.022330 -0.741950 -2.316754 1.117982 0.147276 -4.383540 5.711610 2.439764 9.148924 -3.182706 -20.969918 0.000000 0.000000 0.000000 -29.021488 -5.525255 -0.645705 -45.830563 -6.448854 -2.510074 -3.347000 -15.259214 0.940617 0.000000 0.000000 0.000000 22.373126 -1.173508 -2.030812 58.294204 0.472785 -5.390940 4.377548 26.501087 2.000331 0.000000 0.000000 0.000000 
